HIERARCHY
ROOT Hips
{
	OFFSET -3.958830 18.904000 13.208200
	CHANNELS 6 Xposition Yposition Zposition Zrotation Yrotation Xrotation 
	JOINT LHipJoint
	{
		OFFSET 0.000000 0.000000 0.000000
		CHANNELS 3 Zrotation Yrotation Xrotation
		JOINT LeftUpLeg
		{
			OFFSET 1.800000 -1.400000 0.085000
			CHANNELS 3 Zrotation Yrotation Xrotation
			JOINT LeftLeg
			{
				OFFSET 2.215000 -6.000000 0.000000
				CHANNELS 3 Zrotation Yrotation Xrotation
				JOINT LeftFoot
				{
					OFFSET 2.500000 -6.900000 0.000000
					CHANNELS 3 Zrotation Yrotation Xrotation
					JOINT LeftToeBase
					{
						OFFSET 0.200000 -0.500000 1.950000
						CHANNELS 3 Zrotation Yrotation Xrotation
						End Site
						{
							OFFSET 0.000000 0.000000 0.000000
						}
					}
				}
			}
		}
	}
	JOINT RHipJoint
	{
		OFFSET 0.000000 0.000000 0.000000
		CHANNELS 3 Zrotation Yrotation Xrotation
		JOINT RightUpLeg
		{
			OFFSET -1.800000 -1.400000 0.085000
			CHANNELS 3 Zrotation Yrotation Xrotation
			JOINT RightLeg
			{
				OFFSET -2.215000 -6.000000 0.000000
				CHANNELS 3 Zrotation Yrotation Xrotation
				JOINT RightFoot
				{
					OFFSET -2.500000 -6.900000 0.000000
					CHANNELS 3 Zrotation Yrotation Xrotation
					JOINT RightToeBase
					{
						OFFSET -0.200000 -0.500000 1.950000
						CHANNELS 3 Zrotation Yrotation Xrotation
						End Site
						{
							OFFSET 0.000000 0.000000 0.000000
						}
					}
				}
			}
		}
	}
	JOINT LowerBack
	{
		OFFSET 0.000000 0.000000 0.000000
		CHANNELS 3 Zrotation Yrotation Xrotation
		JOINT Spine
		{
			OFFSET -0.087000 1.940000 -0.288900
			CHANNELS 3 Zrotation Yrotation Xrotation
			JOINT Spine1
			{
				OFFSET 0.000000 1.950000 0.060000
				CHANNELS 3 Zrotation Yrotation Xrotation
				JOINT Neck
				{
					OFFSET 0.000000 0.000000 0.000000
					CHANNELS 3 Zrotation Yrotation Xrotation
					JOINT Neck1
					{
						OFFSET 0.000000 1.600000 0.340000
						CHANNELS 3 Zrotation Yrotation Xrotation
						JOINT Head
						{
							OFFSET 0.000000 1.667000 -0.240000
							CHANNELS 3 Zrotation Yrotation Xrotation
							End Site
							{
								OFFSET 0.000000 0.000000 0.000000
							}
						}
					}
				}
				JOINT LeftShoulder
				{
					OFFSET 0.000000 0.000000 0.000000
					CHANNELS 3 Zrotation Yrotation Xrotation
					JOINT LeftArm
					{
						OFFSET 2.700000 1.550000 -0.730000
						CHANNELS 3 Zrotation Yrotation Xrotation
						JOINT LeftForeArm
						{
							OFFSET 5.450000 0.000000 0.000000
							CHANNELS 3 Zrotation Yrotation Xrotation
							JOINT LeftHand
							{
								OFFSET 3.450000 0.000000 0.000000
								CHANNELS 3 Zrotation Yrotation Xrotation
								JOINT LeftHandIndex1
								{
									OFFSET 0.750000 0.000000 0.000000
									CHANNELS 3 Zrotation Yrotation Xrotation
									End Site
									{
										OFFSET 0.000000 0.000000 0.000000
									}
								}
							}
						}
					}
				}
				JOINT RightShoulder
				{
					OFFSET 0.000000 0.000000 0.000000
					CHANNELS 3 Zrotation Yrotation Xrotation
					JOINT RightArm
					{
						OFFSET -2.700000 1.550000 -0.730000
						CHANNELS 3 Zrotation Yrotation Xrotation
						JOINT RightForeArm
						{
							OFFSET -5.450000 0.000000 0.000000
							CHANNELS 3 Zrotation Yrotation Xrotation
							JOINT RightHand
							{
								OFFSET -3.450000 0.000000 0.000000
								CHANNELS 3 Zrotation Yrotation Xrotation
								JOINT RightHandIndex1
								{
									OFFSET -0.750000 0.000000 0.000000
									CHANNELS 3 Zrotation Yrotation Xrotation
									End Site
									{
										OFFSET 0.000000 0.000000 0.000000
									}
								}
							}
						}
					}
				}
			}
		}
	}
}
MOTION
Frames: 6
Frame Time: 0.016667
-0.182110 16.996700 -3.387990 -9.934723 -27.815445 -1.307210 -15.290008 12.424185 4.453251 17.035712 6.430025 -37.104690 -10.917379 17.892104 43.432987 1.071559 9.368285 1.003030 1.386170 1.375920 1.205300 18.142103 -10.294611 3.633035 4.849078 1.990297 -3.399805 12.305412 -3.972431 5.646840 -1.107829 -3.283959 2.945044 0.444870 -0.618520 0.541400 -2.910736 -0.994508 -9.945256 13.432180 3.079300 43.743669 -0.298907 9.368926 21.356116 11.036174 -12.249597 -18.486800 -21.370569 5.722793 47.871263 -6.843820 -1.009050 -36.599870 -19.307305 -32.851514 14.306712 -53.488728 -7.713034 -6.155711 -10.334319 -14.268151 -1.623717 -2.613182 3.645687 0.512550 -0.520430 0.956170 0.340880 1.365858 54.920920 3.782367 26.594294 52.725350 3.008774 -37.405715 77.960410 -23.799558 4.341476 0.753618 0.646630 -0.089900 -0.830920 0.107910 
-0.182480 16.980380 -3.391950 -10.072511 -28.106743 -1.456584 -15.302423 12.425682 4.516521 17.383923 6.608119 -37.299612 -10.925978 18.166086 43.955768 1.113526 9.499808 0.961067 1.394190 1.386590 1.207570 18.133257 -10.240687 3.642459 4.861591 1.962088 -3.061265 12.569923 -3.985636 5.556415 -1.123496 -3.317942 2.929549 0.446310 -0.625580 0.547340 -2.880294 -1.106446 -10.042501 13.228833 2.935110 44.450549 -0.273147 9.246858 21.159041 11.095247 -12.539929 -18.732365 -22.038214 6.104345 47.714399 -6.796780 -0.863340 -36.593660 -19.398166 -32.810030 14.326763 -53.474850 -7.518208 -6.169981 -11.003344 -13.794743 -1.609993 -2.592535 3.676786 0.507980 -0.524980 0.963740 0.346490 1.409294 54.844604 3.710030 26.765667 53.490359 5.454822 -46.673380 76.545836 -29.092069 4.748453 0.939132 0.657600 -0.100430 -0.840340 0.113720 
-0.182810 16.952090 -3.400170 -10.616862 -28.720548 -2.008176 -15.098337 12.707817 4.905024 18.059279 6.909149 -37.593693 -10.858699 18.561708 44.906333 1.167232 9.697863 0.881400 1.406170 1.401640 1.210190 18.232124 -10.250528 3.935721 4.974291 1.889219 -2.261919 13.027558 -3.963512 5.357520 -1.136021 -3.336985 2.916878 0.449240 -0.638490 0.555560 -3.252098 -1.612793 -11.236423 11.497013 1.246469 53.072113 -1.802990 7.147401 14.637091 12.650516 -12.532379 -23.522557 -25.353317 7.882877 47.180383 -6.748440 -0.600610 -36.751510 -17.765836 -25.807216 10.532272 -54.900634 -7.689614 -6.074153 -12.413185 -12.461126 -1.610889 -2.499305 3.867658 0.507220 -0.533770 0.974960 0.351890 -3.329630 44.498321 8.935135 43.079675 73.008964 20.561304 -52.435638 65.707201 -38.581613 9.174993 -1.018795 0.671360 -0.116420 -0.851100 0.119230 
-0.184560 16.920900 -3.411100 -10.652195 -30.006392 -1.661725 -15.644845 12.747600 4.604188 18.967960 7.623368 -38.116591 -10.940526 19.269022 45.675453 1.250027 10.019720 0.780599 1.422520 1.419410 1.214190 17.936738 -9.384733 3.386895 5.196784 1.907022 -1.560789 13.572442 -3.980923 5.227392 -1.160626 -3.368936 2.898444 0.451130 -0.657470 0.561790 -2.232487 -3.235428 -9.635374 7.524339 -0.506394 43.596104 -7.512659 3.859129 34.777191 14.313225 -10.908047 -26.812627 -26.405280 8.201500 39.774321 -6.589030 -0.422490 -37.216990 -11.644077 -20.903178 3.290008 -51.805211 -11.816135 -6.727400 -13.814987 -13.647780 -1.688156 -2.629046 3.597862 0.515300 -0.550620 0.989770 0.356490 -13.963299 37.261922 43.575461 -86.502524 45.477485 -140.206387 90.331004 70.031963 129.669120 11.200980 -2.812800 0.686490 -0.131420 -0.861540 0.123100 
-0.185900 16.891520 -3.425020 -11.270978 -30.407179 -1.733035 -15.715808 12.526258 4.550015 19.931379 8.144821 -38.235839 -10.767879 19.673518 46.552536 1.291264 10.220015 0.707558 1.438130 1.435160 1.218270 17.975700 -9.265901 3.303235 5.520677 1.838695 -0.903193 14.118896 -4.060914 5.117812 -1.221660 -3.480414 2.848889 0.451810 -0.682630 0.569050 -2.267398 -3.045863 -9.330738 8.367707 -0.061923 43.549401 -5.939162 3.628797 35.567785 13.864924 -11.528428 -26.322877 -27.526168 8.487393 38.959213 -6.258430 -0.317480 -38.053460 -11.757221 -23.210599 4.439172 -52.297858 -11.620762 -7.129056 -15.319371 -13.187455 -1.825416 -2.650004 3.568775 0.532900 -0.575940 1.010270 0.355820 -12.039114 37.383031 42.884274 -84.245604 46.860005 -148.782434 90.227289 58.670919 117.464325 5.656732 4.467081 0.701410 -0.146370 -0.867060 0.124780 
-0.186400 16.867150 -3.442270 -11.866397 -30.967568 -1.875738 -15.780476 12.521760 4.610854 20.824020 8.648694 -38.334918 -10.563737 19.991096 47.244576 1.335853 10.365638 0.647342 1.455980 1.451300 1.235230 17.948638 -9.117536 3.291740 5.904389 1.853063 -0.346782 14.565666 -4.110196 5.205686 -1.261891 -3.521788 2.821230 0.447160 -0.719870 0.572970 -2.132491 -3.298322 -9.364295 7.868181 0.001908 44.726487 -5.014860 3.396972 35.205286 13.621848 -11.799472 -26.252907 -28.731695 9.040717 38.804813 -6.120390 -0.222500 -38.979270 -11.845551 -23.704520 4.858964 -53.362670 -11.201366 -7.687883 -16.269714 -12.950827 -1.967866 -2.617626 3.590586 0.549120 -0.608280 1.034960 0.348870 -11.498153 37.567519 43.104396 -83.948009 47.121730 -143.658607 91.642966 63.617998 106.495945 4.587251 9.177456 0.722070 -0.167280 -0.878700 0.123760 
